<?xml version="1.0" encoding="UTF-8"?>
<svg id="Camada_1" data-name="Camada 1" xmlns="http://www.w3.org/2000/svg" viewBox="0 0 647.63 154.34">
  <defs>
    <style>
      .cls-1 {
        fill: #fff;
      }
    </style>
  </defs>
  <path class="cls-1" d="m53.35,93.56v21.23h-13.19c-9.4,0-16.72-2.22-21.98-6.66-5.26-4.44-7.88-11.69-7.88-21.74v-32.5H0v-20.79h10.31V13.18h25.92v19.91h16.98v20.79h-16.98v32.8c0,2.44.61,4.2,1.82,5.27,1.21,1.08,3.23,1.61,6.06,1.61h9.25Z"/>
  <path class="cls-1" d="m105.72,34.64c4.63-2.63,9.78-3.95,15.44-3.95v26.99h-7.25c-6.59,0-11.53,1.37-14.82,4.1-3.29,2.74-4.94,7.53-4.94,14.39v38.62h-26.4V31.59h26.4v13.87c3.09-4.57,6.95-8.17,11.58-10.81Z"/>
  <path class="cls-1" d="m268.41,53.88h-13.94v60.91h-25.92v-60.91h-9.4v-20.79h9.4v-2.34c0-10.05,2.98-17.69,8.94-22.91,5.96-5.22,14.7-7.83,26.22-7.83,1.92,0,3.33.05,4.24.15v21.23c-4.95-.29-8.44.39-10.46,2.05-2.02,1.66-3.03,4.64-3.03,8.93v.73h13.94v20.79Z"/>
  <path class="cls-1" d="m359.8,79.23h-58.66c.4,5.08,2.1,8.96,5.08,11.64,2.98,2.69,6.64,4.03,10.99,4.03,6.47,0,10.96-2.64,13.49-7.91h27.59c-1.42,5.37-3.97,10.2-7.65,14.5-3.69,4.3-8.31,7.66-13.87,10.1-5.56,2.44-11.77,3.66-18.64,3.66-8.29,0-15.66-1.71-22.13-5.12-6.47-3.42-11.52-8.3-15.16-14.64-3.64-6.34-5.46-13.76-5.46-22.25s1.79-15.91,5.38-22.25c3.59-6.34,8.61-11.22,15.08-14.64,6.47-3.42,13.89-5.12,22.28-5.12s15.46,1.66,21.83,4.98c6.37,3.32,11.34,8.05,14.93,14.2,3.59,6.15,5.38,13.32,5.38,21.52,0,2.34-.15,4.78-.46,7.32Zm-26.07-13.91c0-4.29-1.52-7.71-4.55-10.25-3.03-2.54-6.82-3.81-11.37-3.81s-8.01,1.22-10.99,3.66c-2.98,2.44-4.83,5.91-5.53,10.4h32.44Z"/>
  <path class="cls-1" d="m421.72,34.72c4.49,2.34,7.96,5.42,10.38,9.22v-11.57h25.92v81.55c0,7.51-1.54,14.32-4.62,20.42-3.08,6.1-7.78,10.96-14.1,14.57-6.32,3.61-14.17,5.42-23.57,5.42-12.53,0-22.69-2.86-30.47-8.57-7.78-5.71-12.23-13.45-13.34-23.21h25.62c.81,3.12,2.73,5.59,5.76,7.39,3.03,1.81,6.77,2.71,11.22,2.71,5.36,0,9.63-1.49,12.81-4.47,3.18-2.98,4.77-7.74,4.77-14.28v-11.57c-2.53,3.81-6.01,6.91-10.46,9.3-4.45,2.39-9.65,3.59-15.61,3.59-6.97,0-13.29-1.73-18.95-5.2-5.66-3.46-10.13-8.39-13.41-14.79-3.28-6.39-4.93-13.79-4.93-22.18s1.64-15.76,4.93-22.11c3.28-6.34,7.75-11.22,13.41-14.64,5.66-3.42,11.97-5.12,18.95-5.12,5.96,0,11.19,1.17,15.69,3.51Zm5,23.72c-3.59-3.61-7.96-5.42-13.11-5.42s-9.53,1.78-13.11,5.34c-3.59,3.56-5.38,8.47-5.38,14.71s1.79,11.2,5.38,14.86c3.59,3.66,7.96,5.49,13.11,5.49s9.52-1.8,13.11-5.42c3.59-3.61,5.38-8.54,5.38-14.79s-1.8-11.18-5.38-14.79Z"/>
  <path class="cls-1" d="m560.33,32.38v81.7h-25.92v-11.13c-2.63,3.61-6.19,6.52-10.69,8.71-4.5,2.2-9.47,3.29-14.93,3.29-6.47,0-12.18-1.39-17.13-4.17-4.95-2.78-8.79-6.81-11.52-12.08-2.73-5.27-4.09-11.47-4.09-18.59v-47.73h25.77v44.36c0,5.47,1.46,9.71,4.4,12.74,2.93,3.03,6.87,4.54,11.82,4.54s9.04-1.51,11.97-4.54c2.93-3.02,4.4-7.27,4.4-12.74v-44.36h25.92Z"/>
  <path class="cls-1" d="m593.67,111.59c-5.76-2.44-10.31-5.78-13.64-10.03-3.33-4.25-5.2-9-5.61-14.28h25.62c.3,2.83,1.67,5.12,4.09,6.88,2.43,1.76,5.4,2.64,8.94,2.64,3.23,0,5.73-.61,7.5-1.83,1.77-1.22,2.65-2.8,2.65-4.76,0-2.34-1.26-4.07-3.79-5.2-2.53-1.12-6.62-2.37-12.28-3.73-6.06-1.37-11.12-2.8-15.16-4.32-4.04-1.51-7.53-3.9-10.46-7.17-2.93-3.27-4.4-7.69-4.4-13.25,0-4.68,1.34-8.95,4.02-12.81,2.68-3.85,6.62-6.9,11.82-9.15,5.2-2.24,11.39-3.37,18.57-3.37,10.61,0,18.97,2.54,25.08,7.61,6.11,5.08,9.63,11.81,10.53,20.2h-23.95c-.4-2.83-1.69-5.07-3.87-6.73-2.17-1.66-5.03-2.49-8.56-2.49-3.03,0-5.36.56-6.97,1.68-1.62,1.12-2.42,2.66-2.42,4.61,0,2.34,1.29,4.1,3.87,5.27,2.58,1.17,6.59,2.34,12.05,3.51,6.26,1.56,11.37,3.1,15.31,4.61,3.94,1.51,7.4,3.95,10.38,7.32,2.98,3.37,4.52,7.88,4.62,13.54,0,4.78-1.39,9.05-4.17,12.81-2.78,3.76-6.77,6.71-11.97,8.86-5.21,2.15-11.24,3.22-18.11,3.22-7.38,0-13.94-1.22-19.7-3.66Z"/>
  <path class="cls-1" d="m214.66,98.89l-37.41-61.96h-.05c-1.03-1.74-2.51-3.18-4.34-4.19-1.82-1.01-3.87-1.51-5.96-1.51s-4.14.49-5.96,1.51c-1.82,1.01-3.3,2.45-4.36,4.19l-37.41,61.96c-1.11,1.86-1.63,4.03-1.43,6.17.2,2.14,1.11,4.17,2.59,5.82,1.55,1.72,3.69,3.06,5.99,3.63,2.41.59,4.9.28,7-1.06l31.95-20.23c.49-.31,1.06-.49,1.65-.49s1.16.19,1.65.49l31.95,20.23c2.09,1.34,4.58,1.65,7,1.06,2.29-.54,4.46-1.91,5.99-3.63,1.48-1.65,2.41-3.65,2.61-5.82.22-2.14-.3-4.31-1.43-6.17Zm-85.64,8.22c-.17.12-.49.07-.67.02-.02,0-.03-.01-.05-.02h.72s14.75-9.35,14.75-9.35h0s-14.75,9.34-14.75,9.34Z"/>
  <ellipse class="cls-1" cx="166.97" cy="107.79" rx="7.06" ry="6.75"/>
</svg>